<svg xmlns="http://www.w3.org/2000/svg" width="67" height="67" viewBox="0 0 67 67"><g fill="none" fill-rule="evenodd"><path fill="#FFF" d="M0 67h67V0H0z" opacity=".01"/><path stroke="#A3B0BF" stroke-dasharray="2.294,4.588" stroke-linecap="round" stroke-linejoin="round" stroke-width="1.5" d="M9.444 29.004V9.444H29.8m27.756 28.594v19.517h-20.54"/><path fill="#FFF" d="M26.256 25.924a20.048 20.048 0 0 0-5.154-.692C10 25.232 1 34.232 1 45.335c0 11.102 9 20.103 20.102 20.103 11.103 0 20.103-9.001 20.103-20.103 0-1.462-.165-2.885-.46-4.258-7.252-1.922-12.896-7.774-14.489-15.153"/><path stroke="#A3B0BF" stroke-linecap="round" stroke-linejoin="round" stroke-width="1.5" d="M26.256 25.924a20.048 20.048 0 0 0-5.154-.692C10 25.232 1 34.232 1 45.335c0 11.102 9 20.103 20.102 20.103 11.103 0 20.103-9.001 20.103-20.103 0-1.462-.165-2.885-.46-4.258-7.252-1.922-12.896-7.774-14.489-15.153z"/><path fill="#FFF" d="M45.897 1.563c-11.102 0-20.103 9-20.103 20.103 0 1.462.165 2.884.462 4.258 1.593 7.379 7.236 13.23 14.487 15.153 1.648.436 3.37.69 5.154.69C57 41.768 66 32.768 66 21.667c0-11.103-9-20.103-20.103-20.103"/><path stroke="#A3B0BF" stroke-linecap="round" stroke-linejoin="round" stroke-width="1.5" d="M45.897 1.563c-11.102 0-20.103 9-20.103 20.103 0 1.462.165 2.884.462 4.258 1.593 7.379 7.236 13.23 14.487 15.153 1.648.436 3.37.69 5.154.69C57 41.768 66 32.768 66 21.667c0-11.103-9-20.103-20.103-20.103z"/><path fill="#D7FCE8" d="M22.583 46.18l8.636-6.262a1.84 1.84 0 0 0-1.48-.748H13.16a1.84 1.84 0 0 0-1.51.788l8.666 6.222a1.922 1.922 0 0 0 2.267 0"/><path stroke="#25C16F" stroke-linecap="round" stroke-linejoin="round" stroke-width="1.5" d="M22.583 46.18l8.636-6.262a1.84 1.84 0 0 0-1.48-.748H13.16a1.84 1.84 0 0 0-1.51.788l8.666 6.222a1.922 1.922 0 0 0 2.267 0z"/><path stroke="#25C16F" stroke-linecap="round" stroke-linejoin="round" stroke-width="1.5" d="M29.74 52.985a1.842 1.842 0 0 0 1.841-1.842V41.01c0-.41-.136-.787-.362-1.093l-8.636 6.262a1.922 1.922 0 0 1-2.267 0l-8.666-6.222a1.83 1.83 0 0 0-.332 1.053v10.132c0 1.017.825 1.842 1.842 1.842h16.58z"/><path fill="#D7FCE8" d="M47.18 12.034l-10.44 10.4a2.104 2.104 0 0 1-.007 2.976l5.857 5.88a2.105 2.105 0 0 1 2.977.006l10.441-10.398a2.104 2.104 0 0 1 .006-2.977l-5.857-5.88a2.105 2.105 0 0 1-2.977-.007"/><path stroke="#25C16F" stroke-linecap="round" stroke-linejoin="round" stroke-width="1.5" d="M47.18 12.034l-10.44 10.4a2.104 2.104 0 0 1-.007 2.976l5.857 5.88a2.105 2.105 0 0 1 2.977.006l10.441-10.398a2.104 2.104 0 0 1 .006-2.977l-5.857-5.88a2.105 2.105 0 0 1-2.977-.007z"/><path fill="#D7FCE8" d="M43.021 23.234l4.935-4.915"/><path stroke="#25C16F" stroke-linecap="round" stroke-linejoin="round" stroke-width="1.5" d="M43.021 23.234l4.935-4.915"/><path fill="#D7FCE8" d="M45.957 23.85l2.603-2.593"/><path stroke="#25C16F" stroke-linecap="round" stroke-linejoin="round" stroke-width="1.5" d="M45.957 23.85l2.603-2.593"/></g></svg>