<svg xmlns="http://www.w3.org/2000/svg" width="36" height="37" viewBox="0 0 36 37"><g fill="none" fill-rule="evenodd"><path fill="#FFF" fill-rule="nonzero" d="M0 0h36v36H0z" opacity=".01"/><g stroke="#25C16F" stroke-linecap="round" stroke-linejoin="round"><path fill="#D7FCE8" fill-rule="nonzero" d="M23.72 23.82a9.36 9.36 0 0 0 .09-1.26 9.87 9.87 0 0 0-.09-1.28l2.73-2.14a.65.65 0 0 0 .15-.83L24 13.84a.65.65 0 0 0-.79-.28L20 14.86a9.5 9.5 0 0 0-2.18-1.27l-.48-3.42a.67.67 0 0 0-.65-.54h-5.17a.67.67 0 0 0-.65.55l-.48 3.42a9.91 9.91 0 0 0-2.18 1.27L5 13.58a.65.65 0 0 0-.79.28l-2.59 4.47a.65.65 0 0 0 .15.83l2.73 2.15a9.36 9.36 0 0 0-.09 1.26c.002.428.032.856.09 1.28L1.76 26a.65.65 0 0 0-.15.83l2.59 4.46a.65.65 0 0 0 .79.28l3.22-1.29a9.5 9.5 0 0 0 2.18 1.27l.48 3.45a.67.67 0 0 0 .65.54h5.17a.67.67 0 0 0 .65-.55l.48-3.42A9.91 9.91 0 0 0 20 30.25l3.22 1.29a.65.65 0 0 0 .79-.28l2.59-4.46a.65.65 0 0 0-.15-.83l-2.73-2.15zm-9.61 2.55a3.8 3.8 0 1 1 0-7.6 3.8 3.8 0 0 1 0 7.6z"/><path d="M34.35 9.16L32.88 8a5.32 5.32 0 0 0 .05-.67 3.6 3.6 0 0 0-.05-.67l1.45-1.14a.36.36 0 0 0 .08-.44L33 2.73a.35.35 0 0 0-.42-.15l-1.7.68a4.69 4.69 0 0 0-1.16-.67L29.5.79a.33.33 0 0 0-.33-.29h-2.74a.35.35 0 0 0-.34.29l-.26 1.81a5.47 5.47 0 0 0-1.16.67L23 2.58a.36.36 0 0 0-.42.15L21.17 5.1a.34.34 0 0 0 .08.44l1.45 1.14a5.52 5.52 0 0 0 0 1.34l-1.44 1.14a.36.36 0 0 0-.08.44l1.36 2.4a.35.35 0 0 0 .42.15l1.7-.68a4.68 4.68 0 0 0 1.16.67l.26 1.81a.34.34 0 0 0 .34.29h2.74a.35.35 0 0 0 .34-.29l.26-1.81a5.06 5.06 0 0 0 1.15-.67l1.71.68a.36.36 0 0 0 .42-.15l1.37-2.37a.36.36 0 0 0-.06-.47zm-6.55.47a2.28 2.28 0 1 1 0-4.56 2.28 2.28 0 0 1 0 4.56z"/></g></g></svg>