<svg xmlns="http://www.w3.org/2000/svg" width="67" height="67" viewBox="0 0 67 67"><g fill="none" fill-rule="evenodd"><path fill="#FFF" d="M0 67h67V0H0z" opacity=".01"/><path stroke="#A3B0BF" stroke-linecap="round" stroke-linejoin="round" stroke-width="1.5" d="M39.103 40.166v16.868M8.652 58.348l21.43-21.43m18.015-3.084l9.377 4.465m.885-29.658l-12.46 12.46M9.624 17.283l18.002 7.449"/><path fill="#DFE7EB" d="M9.966 61.517a4.483 4.483 0 1 1-8.966 0 4.483 4.483 0 0 1 8.966 0"/><path stroke="#A3B0BF" stroke-linecap="round" stroke-linejoin="round" stroke-width="1.5" d="M9.966 61.517a4.483 4.483 0 1 1-8.966 0 4.483 4.483 0 0 1 8.966 0z"/><path fill="#DFE7EB" d="M43.586 61.517a4.483 4.483 0 1 1-8.966 0 4.483 4.483 0 0 1 8.966 0"/><path stroke="#A3B0BF" stroke-linecap="round" stroke-linejoin="round" stroke-width="1.5" d="M43.586 61.517a4.483 4.483 0 1 1-8.966 0 4.483 4.483 0 0 1 8.966 0z"/><path fill="#DFE7EB" d="M66 40.224a4.483 4.483 0 1 1-8.966 0 4.483 4.483 0 0 1 8.966 0"/><path stroke="#A3B0BF" stroke-linecap="round" stroke-linejoin="round" stroke-width="1.5" d="M66 40.224a4.483 4.483 0 1 1-8.966 0 4.483 4.483 0 0 1 8.966 0z"/><path fill="#DFE7EB" d="M66 5.483a4.483 4.483 0 1 1-8.966 0 4.483 4.483 0 0 1 8.966 0"/><path stroke="#A3B0BF" stroke-linecap="round" stroke-linejoin="round" stroke-width="1.5" d="M66 5.483a4.483 4.483 0 1 1-8.966 0 4.483 4.483 0 0 1 8.966 0z"/><path fill="#DFE7EB" d="M9.966 15.569a4.483 4.483 0 1 1-8.966 0 4.483 4.483 0 0 1 8.966 0"/><path stroke="#A3B0BF" stroke-linecap="round" stroke-linejoin="round" stroke-width="1.5" d="M9.966 15.569a4.483 4.483 0 1 1-8.966 0 4.483 4.483 0 0 1 8.966 0z"/><path fill="#C4F5DC" d="M49.19 29.017c0 6.19-5.018 11.207-11.207 11.207-6.19 0-11.207-5.017-11.207-11.207S31.794 17.81 37.983 17.81c6.189 0 11.207 5.017 11.207 11.207"/><path stroke="#25C16F" stroke-linecap="round" stroke-linejoin="round" stroke-width="1.5" d="M49.19 29.017c0 6.19-5.018 11.207-11.207 11.207-6.19 0-11.207-5.017-11.207-11.207S31.794 17.81 37.983 17.81c6.189 0 11.207 5.017 11.207 11.207z"/></g></svg>