<svg xmlns="http://www.w3.org/2000/svg" width="67" height="67" viewBox="0 0 67 67"><g fill="none" fill-rule="evenodd"><path fill="#FFF" fill-opacity=".01" d="M0 67h67V0H0z"/><path fill="#DFE7EB" d="M8.8 66V28.831A1.83 1.83 0 0 0 6.969 27H2.83A1.83 1.83 0 0 0 1 28.831V66h7.8zm14.3 0V22.792a1.83 1.83 0 0 0-1.831-1.83H17.13c-1.01 0-1.831.819-1.831 1.83V66h7.8zm14.3 0V30.076a1.83 1.83 0 0 0-1.83-1.831h-4.14a1.83 1.83 0 0 0-1.83 1.831V66h7.8zm14.3 0V37.876c0-1.011-.82-1.831-1.83-1.831h-4.03c-1.012 0-1.832.82-1.832 1.831V66H51.7zM66 66V16.984c0-1.01-.819-1.831-1.831-1.831h-4.138a1.832 1.832 0 0 0-1.831 1.831V66H66z"/><path stroke="#25C16F" stroke-linecap="round" stroke-linejoin="round" stroke-width="1.5" d="M4.9 19.2l14.3-6.039 14.3 7.284 14.353 9.631L62.1 3.746"/><path fill="#C4F5DC" d="M7.646 19.2a2.746 2.746 0 1 0-5.492-.001 2.746 2.746 0 0 0 5.492.001"/><path stroke="#25C16F" stroke-linecap="round" stroke-linejoin="round" stroke-width="1.5" d="M7.646 19.2a2.746 2.746 0 1 0-5.492-.001 2.746 2.746 0 0 0 5.492.001z"/><path fill="#C4F5DC" d="M21.946 12.861a2.746 2.746 0 1 0-5.493 0 2.746 2.746 0 0 0 5.493 0"/><path stroke="#25C16F" stroke-linecap="round" stroke-linejoin="round" stroke-width="1.5" d="M21.946 12.861a2.746 2.746 0 1 0-5.493 0 2.746 2.746 0 0 0 5.493 0z"/><path fill="#C4F5DC" d="M36.246 20.592a2.746 2.746 0 1 0-5.493-.002 2.746 2.746 0 0 0 5.493.002"/><path stroke="#25C16F" stroke-linecap="round" stroke-linejoin="round" stroke-width="1.5" d="M36.246 20.592a2.746 2.746 0 1 0-5.493-.002 2.746 2.746 0 0 0 5.493.002z"/><path fill="#C4F5DC" d="M50.547 29.16a2.746 2.746 0 1 0-5.493 0 2.746 2.746 0 0 0 5.493 0"/><path stroke="#25C16F" stroke-linecap="round" stroke-linejoin="round" stroke-width="1.5" d="M50.547 29.16a2.746 2.746 0 1 0-5.493 0 2.746 2.746 0 0 0 5.493 0z"/><path fill="#C4F5DC" d="M64.847 3.746a2.746 2.746 0 1 0-5.493 0 2.746 2.746 0 1 0 5.493 0"/><path stroke="#25C16F" stroke-linecap="round" stroke-linejoin="round" stroke-width="1.5" d="M64.847 3.746a2.746 2.746 0 1 0-5.493 0 2.746 2.746 0 1 0 5.493 0z"/><path stroke="#A3B0BF" stroke-linecap="round" stroke-linejoin="round" stroke-width="1.5" d="M1 66h65"/></g></svg>