<svg xmlns="http://www.w3.org/2000/svg" width="67" height="67" viewBox="0 0 67 67"><g fill="none" fill-rule="evenodd"><path fill="#FFF" d="M0 67h67V0H0z" opacity=".01"/><path fill="#DFE7EB" d="M59.676 25.043h-.925V44.09a6.324 6.324 0 0 1-6.324 6.324H16.706v2.133a6.324 6.324 0 0 0 6.324 6.324h36.646A6.324 6.324 0 0 0 66 52.548V31.367a6.324 6.324 0 0 0-6.324-6.324"/><path stroke="#A3B0BF" stroke-linecap="round" stroke-linejoin="round" stroke-width="1.5" d="M59.676 25.043h-.925V44.09a6.324 6.324 0 0 1-6.324 6.324H16.706v2.133a6.324 6.324 0 0 0 6.324 6.324h36.646A6.324 6.324 0 0 0 66 52.548V31.367a6.324 6.324 0 0 0-6.324-6.324z"/><path fill="#FFF" d="M52.427 16.585h-2.133v19.049a6.325 6.325 0 0 1-6.324 6.323H9.457v2.133a6.324 6.324 0 0 0 6.324 6.324h36.646a6.324 6.324 0 0 0 6.324-6.324V22.91a6.324 6.324 0 0 0-6.324-6.325"/><path stroke="#A3B0BF" stroke-width="1.5" d="M52.427 16.585h-2.133v19.049a6.325 6.325 0 0 1-6.324 6.323H9.457v2.133a6.324 6.324 0 0 0 6.324 6.324h36.646a6.324 6.324 0 0 0 6.324-6.324V22.91a6.324 6.324 0 0 0-6.324-6.325z"/><path fill="#C4F5DC" d="M43.97 41.957H7.324A6.324 6.324 0 0 1 1 35.633v-21.18a6.324 6.324 0 0 1 6.324-6.325H43.97a6.324 6.324 0 0 1 6.324 6.324v21.181a6.324 6.324 0 0 1-6.324 6.324"/><path stroke="#25C16F" stroke-linecap="round" stroke-linejoin="round" stroke-width="1.5" d="M43.97 41.957H7.324A6.324 6.324 0 0 1 1 35.633v-21.18a6.324 6.324 0 0 1 6.324-6.325H43.97a6.324 6.324 0 0 1 6.324 6.324v21.181a6.324 6.324 0 0 1-6.324 6.324z"/><path fill="#FFF" d="M12.926 36.433c-1.89 0-3.722-.394-5.446-1.171a.75.75 0 0 1 .282-1.433 7.82 7.82 0 0 0 .978-.095 8.123 8.123 0 0 0 3.439-1.34 4.991 4.991 0 0 1-1.171-.473 5.262 5.262 0 0 1-2.177-2.294.75.75 0 0 1 .018-.695 5.123 5.123 0 0 1-.777-.576A4.965 4.965 0 0 1 6.36 25.26a.745.745 0 0 1 .262-.682.758.758 0 0 1 .358-.165 4.976 4.976 0 0 1-.883-2.31 5.124 5.124 0 0 1 .332-2.672.746.746 0 0 1 .694-.466c.185 0 .365.069.505.196a11.958 11.958 0 0 0 8.327 3.113 7.179 7.179 0 0 1-.03-.196c-.423-2.824 1.54-5.478 4.378-5.904a5.005 5.005 0 0 1 3.652.799 8.11 8.11 0 0 0 2.056-1.228.749.749 0 0 1 .845-.073.752.752 0 0 1 .373.762 5.055 5.055 0 0 1-.19.815.751.751 0 0 1 .979 1.008 9.341 9.341 0 0 1-1.732 2.508 13.535 13.535 0 0 1-1.07 7.882 14.17 14.17 0 0 1-2.304 3.464 12.196 12.196 0 0 1-3.43 2.68 13.682 13.682 0 0 1-4.536 1.487c-.661.102-1.343.155-2.021.155"/><path fill="#25C16F" d="M26.488 14.824h-.027a1.494 1.494 0 0 0-.932.346 7.351 7.351 0 0 1-1.512.957 5.756 5.756 0 0 0-3.857-.69c-2.984.448-5.134 3.099-5.037 6.075a11.208 11.208 0 0 1-6.99-2.907 1.497 1.497 0 0 0-1.339-.353 1.5 1.5 0 0 0-1.058.895 5.91 5.91 0 0 0-.378 3.089c.078.683.285 1.342.601 1.947a1.5 1.5 0 0 0-.341 1.184 5.739 5.739 0 0 0 1.988 3.578c.127.114.261.223.399.326a1.49 1.49 0 0 0 .152.686 6.013 6.013 0 0 0 2.316 2.522 7.307 7.307 0 0 1-1.826.51 7.31 7.31 0 0 1-.91.09 1.5 1.5 0 0 0-.565 2.866 13.91 13.91 0 0 0 5.754 1.238c.716 0 1.437-.056 2.144-.165a14.44 14.44 0 0 0 4.77-1.567 12.944 12.944 0 0 0 3.636-2.845 14.898 14.898 0 0 0 2.418-3.635 14.311 14.311 0 0 0 1.188-7.96 10.098 10.098 0 0 0 1.614-2.433 1.499 1.499 0 0 0-.727-2.003 1.498 1.498 0 0 0-1.476-1.751h-.005zm0 1.5a4.336 4.336 0 0 1-1.578 2.75 9.43 9.43 0 0 0 2.431-1.137 8.681 8.681 0 0 1-1.869 2.58c.045.187.08.377.105.567a12.822 12.822 0 0 1-1.041 7.248 13.37 13.37 0 0 1-2.18 3.275 11.483 11.483 0 0 1-3.223 2.522 12.98 12.98 0 0 1-4.293 1.406 12.506 12.506 0 0 1-7.052-.957 8.725 8.725 0 0 0 1.071-.104 8.812 8.812 0 0 0 5.197-2.711 4.242 4.242 0 0 1-2.682-.496 4.533 4.533 0 0 1-1.87-1.97c.047.002.094.002.141.002.23 0 .459-.013.688-.04a4.135 4.135 0 0 0 1.047-.327 4.457 4.457 0 0 1-2.809-1.135 4.244 4.244 0 0 1-1.468-2.644 5.23 5.23 0 0 0 2.202.249 4.239 4.239 0 0 1-2.462-3.383 4.404 4.404 0 0 1 .281-2.304 12.732 12.732 0 0 0 9.802 3.25 4.095 4.095 0 0 1-.256-.984 4.455 4.455 0 0 1 3.745-5.065 4.237 4.237 0 0 1 3.422.906 8.88 8.88 0 0 0 2.651-1.498zm0 0h.005-.005z"/><path fill="#C4F5DC" d="M30 29h13"/><path stroke="#25C16F" stroke-linecap="round" stroke-linejoin="round" stroke-width="1.5" d="M30 29h13"/><path fill="#C4F5DC" d="M30 34h8"/><path stroke="#25C16F" stroke-linecap="round" stroke-linejoin="round" stroke-width="1.5" d="M30 34h8"/></g></svg>