<svg xmlns="http://www.w3.org/2000/svg" width="67" height="67" viewBox="0 0 67 67"><g fill="none" fill-rule="evenodd"><path fill="#FFF" fill-opacity=".01" fill-rule="nonzero" d="M0 0h67v67H0z"/><g transform="translate(5 1)"><path fill="#FFF" fill-rule="nonzero" d="M.49 60.52A4.55 4.55 0 0 0 5 65h47a4.57 4.57 0 0 0 4.48-4.48V9H5S.49 9 .49 4.48"/><path fill="#FFF" fill-rule="nonzero" d="M56.32 9H5a5.41 5.41 0 0 1-3.34-1.35A4.47 4.47 0 0 1 .49 4.39v56.95A3.66 3.66 0 0 0 4.15 65h48.51a3.66 3.66 0 0 0 3.66-3.66V9z"/><path fill="#DFE7EB" d="M5 9v56a4.55 4.55 0 0 1-4.48-4.48v-56C.49 9 5 9 5 9z"/><path stroke="#A3B0BF" stroke-linecap="round" stroke-linejoin="round" stroke-width="1.5" d="M56.52 0H3.85A3.36 3.36 0 0 0 .49 3.36v57.16A4.55 4.55 0 0 0 5 65h47a4.57 4.57 0 0 0 4.48-4.48V9H5S.49 9 .49 4.48"/><rect width="24.66" height="17.93" x="16.18" y="26.99" fill="#C4F5DC" fill-rule="nonzero" stroke="#25C16F" stroke-linecap="round" stroke-linejoin="round" stroke-width="1.5" rx="3.66"/><path fill="#C4F5DC" fill-rule="nonzero" stroke="#25C16F" stroke-linecap="round" stroke-linejoin="round" stroke-width="1.5" d="M22.9 33.72h6.72M22.9 38.2h11.21M9.45 4.48v13.45l4.48-4.48 4.49 4.48V4.48z"/><path stroke="#A3B0BF" stroke-linecap="round" stroke-linejoin="round" stroke-width="1.5" d="M4.97 4.48h48.61"/></g></g></svg>